<svg width="24" height="24" viewBox="0 0 24 24" fill="none" xmlns="http://www.w3.org/2000/svg">
<g clip-path="url(#clip0_35_4037)">
<path d="M11.4545 -0.45459C5.13832 -0.45459 0 4.68373 0 11C0 17.3162 5.13832 22.4545 11.4545 22.4545H22.9091V11C22.9091 4.68373 17.7708 -0.45459 11.4545 -0.45459ZM10.5 11.9545C10.5 14.0602 8.78755 15.7727 6.68182 15.7727V13.8636C7.73468 13.8636 8.59091 13.0074 8.59091 11.9545H5.72727V9.09086C5.72727 8.038 6.5835 7.18177 7.63636 7.18177H10.5V11.9545ZM17.1818 11.9545C17.1818 14.0602 15.4694 15.7727 13.3636 15.7727V13.8636C14.4165 13.8636 15.2727 13.0074 15.2727 11.9545H12.4091V9.09086C12.4091 8.038 13.2653 7.18177 14.3182 7.18177H17.1818V11.9545Z" fill="#FCDB66"/>
</g>
<defs>
<clipPath id="clip0_35_4037">
<rect width="24" height="24" fill="white"/>
</clipPath>
</defs>
</svg>
